<?xml version="1.0" encoding="utf-8"?>
<!-- Generator: Adobe Illustrator 16.0.0, SVG Export Plug-In . SVG Version: 6.00 Build 0)  -->
<!DOCTYPE svg PUBLIC "-//W3C//DTD SVG 1.1//EN" "http://www.w3.org/Graphics/SVG/1.1/DTD/svg11.dtd">
<svg version="1.1" id="Layer_1" xmlns="http://www.w3.org/2000/svg" xmlns:xlink="http://www.w3.org/1999/xlink" x="0px" y="0px"
	 width="425.979px" height="157.492px" viewBox="0 0 425.979 157.492" enable-background="new 0 0 425.979 157.492"
	 xml:space="preserve">
<g>
	<g>
		<g>
			<polygon fill="#58595B" points="361.336,77.593 361.336,86.67 342.644,86.67 342.644,118.4 333.563,118.4 333.563,120.024 
				344.262,120.024 344.262,88.284 362.955,88.284 362.955,77.593 			"/>
			<rect x="314.382" y="86.67" fill="#58595B" width="15.585" height="1.614"/>
		</g>
		<g>
			<path fill="#0095DA" d="M379.518,73.055h9.171l23.391,40.806h-10.664l-7.851-14.882h-19.559l-8.079,14.882h-9.47L379.518,73.055z
				 M389.63,92.058l-5.841-11.057l-6.158,11.057H389.63z"/>
		</g>
		<g>
			<path fill="#58595B" d="M112.939,73.055h9.171l23.389,40.806h-10.663l-7.823-14.882h-19.685l-7.98,14.882h-9.471L112.939,73.055z
				 M123.078,92.058l-5.868-11.057l-6.257,11.057H123.078z"/>
		</g>
		<path fill="#58595B" d="M149.502,73.055h34.98c1.554,0,2.766,0.08,3.642,0.239c0.879,0.157,1.705,0.468,2.48,0.928
			c1.155,0.656,1.947,1.55,2.377,2.686c0.426,1.137,0.643,2.848,0.643,5.14v9.715c0,1.393-0.057,2.463-0.164,3.208
			c-0.11,0.748-0.326,1.47-0.645,2.166c-0.577,1.316-1.497,2.237-2.762,2.765c-1.266,0.527-3.121,0.79-5.571,0.79h-25.512v13.17
			h-9.469V73.055z M180.15,92.058c1.434,0,2.455-0.235,3.062-0.702c0.607-0.467,0.911-1.228,0.911-2.284v-3.978
			c0-1.057-0.304-1.81-0.911-2.256c-0.606-0.448-1.628-0.672-3.062-0.672h-21.18v9.892H180.15z"/>
		<path fill="#58595B" d="M202.942,73.055h34.98c1.555,0,2.768,0.08,3.644,0.239c0.877,0.157,1.704,0.468,2.48,0.928
			c1.156,0.656,1.947,1.55,2.376,2.686c0.428,1.137,0.643,2.848,0.643,5.14v9.715c0,1.393-0.055,2.463-0.166,3.208
			c-0.108,0.748-0.323,1.47-0.641,2.166c-0.578,1.316-1.5,2.237-2.764,2.765c-1.267,0.527-3.122,0.79-5.572,0.79h-25.509v13.17
			h-9.472V73.055z M233.592,92.058c1.434,0,2.455-0.235,3.062-0.702c0.607-0.467,0.912-1.228,0.912-2.284v-3.978
			c0-1.057-0.305-1.81-0.912-2.256c-0.606-0.448-1.628-0.672-3.062-0.672h-21.178v9.892H233.592z"/>
		<path fill="#0095DA" d="M304.09,104.869c0,1.672-0.154,3.08-0.462,4.228c-0.311,1.146-0.816,2.071-1.524,2.777
			c-0.706,0.707-1.633,1.216-2.778,1.522c-1.144,0.31-2.553,0.464-4.226,0.464h-30.589c-1.674,0-3.072-0.154-4.198-0.464
			c-1.126-0.307-2.041-0.815-2.747-1.522c-0.709-0.706-1.217-1.632-1.526-2.777c-0.308-1.147-0.462-2.556-0.462-4.228V82.047
			c0-3.307,0.663-5.63,1.988-6.977c1.323-1.345,3.64-2.016,6.945-2.016H295.1c1.673,0,3.082,0.164,4.226,0.493
			c1.146,0.329,2.072,0.837,2.778,1.522c0.708,0.687,1.214,1.613,1.524,2.78c0.308,1.164,0.462,2.563,0.462,4.196V104.869z
			 M294.622,104.81V82.166h-29.574v22.644H294.622z"/>
		<path fill="#0095DA" d="M338.085,113.86h-9.529V82.166h-18.73v-9.111h46.989v9.111h-18.729V113.86z"/>
	</g>
	<g>
		<path fill="#58595B" d="M101.066,141.11v-10.642h-0.031l-4.474,10.642h-1.017l-4.441-10.642h-0.032v10.642h-1.194v-11.949h1.84
			l4.345,10.173l4.358-10.173h1.842v11.949H101.066z"/>
		<path fill="#58595B" d="M109.981,141.319c-2.487,0-4.603-2.082-4.603-4.568c0-2.552,2.035-4.698,4.603-4.698
			c2.52,0,4.633,2.114,4.633,4.634C114.614,139.222,112.517,141.319,109.981,141.319z M109.997,133.068
			c-2.002,0-3.486,1.712-3.486,3.665c0,1.922,1.534,3.57,3.486,3.57c2.035,0,3.489-1.68,3.489-3.666
			C113.486,134.716,111.935,133.068,109.997,133.068z"/>
		<path fill="#58595B" d="M122.192,141.319c-1.374,0-2.665-0.629-3.441-1.759h-0.032v1.55h-1.13v-11.949h1.13v4.666h0.032
			c0.792-1.129,2.052-1.774,3.441-1.774c2.599,0,4.745,1.969,4.745,4.616C126.938,139.334,124.84,141.319,122.192,141.319z
			 M122.192,133.068c-2.004,0-3.538,1.663-3.538,3.635c0,1.97,1.534,3.601,3.538,3.601c2.066,0,3.616-1.519,3.616-3.586
			C125.809,134.635,124.29,133.068,122.192,133.068z"/>
		<path fill="#58595B" d="M129.765,131.196v-2.035h1.131v2.035H129.765z M129.765,141.11v-8.833h1.131v8.833H129.765z"/>
		<path fill="#58595B" d="M134.205,141.11v-11.949h1.132v11.949H134.205z"/>
		<path fill="#58595B" d="M147.416,137.106h-8.043c0.082,1.743,1.696,3.197,3.423,3.197c1.357,0,2.682-0.776,3.166-2.085h1.194
			c-0.646,1.843-2.389,3.101-4.343,3.101c-2.552,0-4.602-2.082-4.602-4.616c0-2.52,2.05-4.65,4.584-4.65
			c2.585,0,4.636,2.179,4.636,4.729C147.432,136.896,147.416,136.992,147.416,137.106z M142.813,133.068
			c-1.761,0-3.165,1.293-3.44,3.02h6.896C145.979,134.361,144.589,133.068,142.813,133.068z"/>
		<path fill="#58595B" d="M161.933,141.319c-3.423,0-6.248-2.712-6.248-6.167c0-3.486,2.761-6.186,6.232-6.186
			c1.808,0,3.521,0.775,4.714,2.132c0.308,0.338,0.582,0.71,0.761,1.13h-1.342c-0.92-1.373-2.502-2.178-4.149-2.178
			c-2.744,0-5.021,2.404-5.021,5.118c0,2.68,2.343,5.07,5.038,5.07c1.729,0,3.164-0.905,4.183-2.262h1.341
			C166.342,139.996,164.242,141.319,161.933,141.319z"/>
		<path fill="#58595B" d="M174.61,141.319c-2.486,0-4.603-2.082-4.603-4.568c0-2.552,2.035-4.698,4.603-4.698
			c2.518,0,4.634,2.114,4.634,4.634C179.244,139.222,177.146,141.319,174.61,141.319z M174.627,133.068
			c-2.002,0-3.489,1.712-3.489,3.665c0,1.922,1.534,3.57,3.489,3.57c2.034,0,3.487-1.68,3.487-3.666
			C178.114,134.716,176.564,133.068,174.627,133.068z"/>
		<path fill="#58595B" d="M188.805,141.11v-4.86c0-0.839-0.211-1.825-0.84-2.423c-0.517-0.482-1.21-0.759-1.921-0.759
			c-0.71,0-1.405,0.276-1.922,0.759c-0.613,0.581-0.823,1.534-0.823,2.342v4.941h-1.13v-8.833h1.13v1.132h0.032
			c0.582-0.904,1.662-1.356,2.713-1.356c2.535,0,3.892,1.76,3.892,4.197v4.86H188.805z"/>
		<path fill="#58595B" d="M195.394,133.295v7.815h-1.128v-7.815h-1.858v-1.018h1.858v-3.116h1.128v3.116h2.118v1.018H195.394z"/>
		<path fill="#58595B" d="M208.684,137.106h-8.042c0.083,1.743,1.696,3.197,3.425,3.197c1.356,0,2.68-0.776,3.164-2.085h1.195
			c-0.646,1.843-2.39,3.101-4.343,3.101c-2.554,0-4.604-2.082-4.604-4.616c0-2.52,2.05-4.65,4.587-4.65
			c2.582,0,4.633,2.179,4.633,4.729C208.699,136.896,208.684,136.992,208.684,137.106z M204.083,133.068
			c-1.76,0-3.165,1.293-3.441,3.02h6.896C207.248,134.361,205.857,133.068,204.083,133.068z"/>
		<path fill="#58595B" d="M218.261,141.11v-4.86c0-0.839-0.208-1.825-0.84-2.423c-0.516-0.482-1.211-0.759-1.921-0.759
			c-0.711,0-1.404,0.276-1.922,0.759c-0.613,0.581-0.822,1.534-0.822,2.342v4.941h-1.131v-8.833h1.131v1.132h0.031
			c0.581-0.904,1.664-1.356,2.713-1.356c2.535,0,3.893,1.76,3.893,4.197v4.86H218.261z"/>
		<path fill="#58595B" d="M224.85,133.295v7.815h-1.129v-7.815h-1.858v-1.018h1.858v-3.116h1.129v3.116h2.115v1.018H224.85z"/>
		<path fill="#58595B" d="M242.579,140.126c-1.079,0.694-2.631,0.984-3.89,0.984h-3.487v-11.949h3.487
			c1.275,0,2.811,0.29,3.89,0.984c1.697,1.083,2.714,3.02,2.714,5.023C245.293,137.155,244.244,139.043,242.579,140.126z
			 M242.064,131.164c-1.178-0.825-2.535-0.92-3.941-0.92h-1.727v9.783h1.985c1.406,0,2.666-0.113,3.845-0.968
			c1.228-0.888,1.873-2.454,1.873-3.939C244.1,133.554,243.355,132.053,242.064,131.164z"/>
		<path fill="#58595B" d="M248.282,131.196v-2.035h1.132v2.035H248.282z M248.282,141.11v-8.833h1.132v8.833H248.282z"/>
		<path fill="#58595B" d="M254.775,141.319c-1.583,0-2.713-1.146-2.713-2.728v-0.098h1.13c0.018,1.018,0.5,1.81,1.583,1.81
			c1,0,1.646-0.565,1.646-1.583c0-2.341-4.1-1.26-4.1-4.215c0-1.454,1.082-2.453,2.519-2.453c1.355,0,2.405,1.048,2.405,2.404h-1.13
			c-0.049-0.76-0.517-1.389-1.324-1.389c-0.758,0-1.341,0.565-1.341,1.325c0,2.018,4.102,0.968,4.102,4.23
			C257.552,140.319,256.439,141.319,254.775,141.319z"/>
		<path fill="#58595B" d="M262.365,133.295v7.815h-1.132v-7.815h-1.854v-1.018h1.854v-3.116h1.132v3.116h2.114v1.018H262.365z"/>
		<path fill="#58595B" d="M268.017,135.942v5.168h-1.131v-8.833h1.131v1.276h0.032c0.484-1.131,1.341-1.421,2.485-1.501v1.193
			C268.984,133.375,268.017,134.361,268.017,135.942z"/>
		<path fill="#58595B" d="M272.957,131.196v-2.035h1.133v2.035H272.957z M272.957,141.11v-8.833h1.133v8.833H272.957z"/>
		<path fill="#58595B" d="M282.05,141.319c-1.373,0-2.665-0.629-3.44-1.759h-0.031v1.55h-1.132v-11.949h1.132v4.666h0.031
			c0.793-1.129,2.05-1.774,3.44-1.774c2.6,0,4.746,1.969,4.746,4.616C286.796,139.334,284.698,141.319,282.05,141.319z
			 M282.05,133.068c-2.002,0-3.536,1.663-3.536,3.635c0,1.97,1.534,3.601,3.536,3.601c2.067,0,3.616-1.519,3.616-3.586
			C285.666,134.635,284.147,133.068,282.05,133.068z"/>
		<path fill="#58595B" d="M296.243,141.11v-1.372h-0.031c-0.516,1.082-1.663,1.581-2.825,1.581c-1.147,0-2.31-0.402-3.036-1.323
			c-0.631-0.791-0.774-1.857-0.774-2.841v-4.878h1.13v4.86c0,1.825,0.662,3.166,2.681,3.166c0.742,0,1.323-0.195,1.873-0.712
			c0.776-0.742,0.92-1.614,0.92-2.646v-4.668h1.131v8.833H296.243z"/>
		<path fill="#58595B" d="M302.816,133.295v7.815h-1.129v-7.815h-1.858v-1.018h1.858v-3.116h1.129v3.116h2.117v1.018H302.816z"/>
		<path fill="#58595B" d="M307.341,131.196v-2.035h1.128v2.035H307.341z M307.341,141.11v-8.833h1.128v8.833H307.341z"/>
		<path fill="#58595B" d="M316.01,141.319c-2.484,0-4.601-2.082-4.601-4.568c0-2.552,2.035-4.698,4.601-4.698
			c2.521,0,4.636,2.114,4.636,4.634C320.646,139.222,318.546,141.319,316.01,141.319z M316.027,133.068
			c-2.002,0-3.488,1.712-3.488,3.665c0,1.922,1.533,3.57,3.488,3.57c2.035,0,3.488-1.68,3.488-3.666
			C319.516,134.716,317.965,133.068,316.027,133.068z"/>
		<path fill="#58595B" d="M330.207,141.11v-4.86c0-0.839-0.212-1.825-0.841-2.423c-0.518-0.482-1.21-0.759-1.922-0.759
			c-0.71,0-1.404,0.276-1.922,0.759c-0.612,0.581-0.823,1.534-0.823,2.342v4.941h-1.13v-8.833h1.13v1.132h0.033
			c0.582-0.904,1.663-1.356,2.712-1.356c2.536,0,3.893,1.76,3.893,4.197v4.86H330.207z"/>
		<path fill="#58595B" d="M346.888,135.604c-0.903,0.613-2.019,0.693-3.083,0.693h-2.132v4.813h-1.196v-11.949h3.328
			c1.064,0,2.18,0.08,3.083,0.695c0.97,0.662,1.485,1.71,1.485,2.873C348.373,133.892,347.857,134.941,346.888,135.604z
			 M345.79,130.55c-0.678-0.323-1.309-0.306-2.05-0.306h-2.067v4.974h2.067c0.741,0,1.372,0.015,2.05-0.308
			c0.888-0.42,1.388-1.194,1.388-2.181C347.178,131.744,346.678,130.97,345.79,130.55z"/>
		<path fill="#58595B" d="M351.087,141.11v-11.949h1.13v11.949H351.087z"/>
		<path fill="#58595B" d="M363.375,141.11v-1.55h-0.03c-0.776,1.162-2.068,1.759-3.441,1.759c-2.648,0-4.746-1.985-4.746-4.65
			c0-2.647,2.146-4.616,4.746-4.616c1.39,0,2.681,0.58,3.441,1.774h0.03v-1.55h1.132v8.833H363.375z M359.903,133.068
			c-2.099,0-3.616,1.566-3.616,3.649c0,2.067,1.55,3.586,3.616,3.586c2.004,0,3.536-1.631,3.536-3.601
			C363.439,134.731,361.907,133.068,359.903,133.068z"/>
		<path fill="#58595B" d="M369.934,133.295v7.815h-1.131v-7.815h-1.857v-1.018h1.857v-3.116h1.131v3.116h2.114v1.018H369.934z"/>
		<path fill="#58595B" d="M376.215,133.295v7.815h-1.13v-7.815h-1.373v-1.018h1.373c0.016-0.436,0.032-0.888,0.146-1.324
			c0.419-1.566,1.76-1.986,3.245-2.001v1.049c-1.629,0-2.261,0.661-2.261,2.211v0.065h2.261v1.018H376.215z"/>
		<path fill="#58595B" d="M384.968,141.319c-2.487,0-4.602-2.082-4.602-4.568c0-2.552,2.033-4.698,4.602-4.698
			c2.519,0,4.635,2.114,4.635,4.634C389.603,139.222,387.504,141.319,384.968,141.319z M384.983,133.068
			c-2.002,0-3.487,1.712-3.487,3.665c0,1.922,1.534,3.57,3.487,3.57c2.035,0,3.487-1.68,3.487-3.666
			C388.471,134.716,386.922,133.068,384.983,133.068z"/>
		<path fill="#58595B" d="M393.656,135.942v5.168h-1.131v-8.833h1.131v1.276h0.031c0.485-1.131,1.341-1.421,2.489-1.501v1.193
			C394.626,133.375,393.656,134.361,393.656,135.942z"/>
		<path fill="#58595B" d="M410.95,141.11v-5.119c0-1.566-0.663-2.923-2.406-2.923c-1.745,0-2.405,1.356-2.405,2.923v5.119h-1.131
			v-5.119c0-1.566-0.663-2.923-2.406-2.923c-1.744,0-2.406,1.356-2.406,2.923v5.119h-1.13v-8.833h1.13v1.018
			c0.532-0.84,1.438-1.242,2.406-1.242c1.259,0,2.358,0.596,2.971,1.694c0.68-1.082,1.679-1.694,2.972-1.694
			c2.26,0,3.536,1.645,3.536,3.811v5.247H410.95z"/>
	</g>
	<g>
		<g>
			<path fill="#0095DA" d="M40.254,77.713c-3.462,0.559-6.86,1.267-10.198,2.105c-2.871,9.393-4.602,19.222-5.062,29.298
				c13.051-8.06,27.876-13.731,43.969-16.298c2.538-0.405,5.069-0.716,7.594-0.957c1.729-4.644,3.92-9.05,6.691-13.125
				C69.477,75.867,54.967,75.393,40.254,77.713z"/>
		</g>
		<g>
			<path fill="#0095DA" d="M29.605,26.998C20.881,40.282,14.78,55.32,11.886,71.285c5.138-1.552,10.437-2.784,15.884-3.652
				c20.783-3.315,41.168-1.052,59.635,5.672c4.186-4.868,9.155-9.08,14.765-12.417C82.868,41.905,57.341,29.624,29.605,26.998z"/>
		</g>
		<g>
			<path fill="#0095DA" d="M45.506,109.005c-1.31,6.703-1.485,13.747-0.346,20.885c0.623,3.91,1.615,7.671,2.932,11.253
				c5.084-11.556,13.761-21.345,24.841-27.749c-0.101-5.215,0.48-10.327,1.677-15.232C64.269,100.545,54.519,104.225,45.506,109.005
				z"/>
		</g>
	</g>
</g>
</svg>
