<svg height="247.774908" viewBox="0 0 41.859302 25.569493" width="403.592118" xmlns="http://www.w3.org/2000/svg" xmlns:xlink="http://www.w3.org/1999/xlink"><symbol id="a" overflow="visible"/><symbol id="b" overflow="visible"/><symbol id="c" overflow="visible"/><symbol id="d" overflow="visible"/><symbol id="e" overflow="visible"/><symbol id="f" overflow="visible"/><symbol id="g" overflow="visible"/><symbol id="h" overflow="visible"/><symbol id="i" overflow="visible"/><symbol id="j" overflow="visible"/><g transform="translate(73.667343 -90.991598)"><g transform="matrix(.35277779 0 0 .35277779 -393.68503 -97.16161)"><use fill="#4c4c4c" height="100%" width="100%" x="195.8131" xlink:href="#b" y="296.1666"/><use fill="#4c4c4c" height="100%" width="100%" x="173.96919" xlink:href="#b" y="324.17459"/><use fill="#4c4c4c" height="100%" width="100%" x="259.09839" xlink:href="#b" y="324.17459"/><use fill="#4c4c4c" height="100%" width="100%" x="269.254" xlink:href="#b" y="324.17459"/><use fill="#4c4c4c" height="100%" width="100%" x="67.888901" xlink:href="#b" y="338.17859"/><use fill="#4c4c4c" height="100%" width="100%" x="194.7097" xlink:href="#b" y="338.17859"/><use fill="#4c4c4c" height="100%" width="100%" x="878.74841" xlink:href="#a" y="750.02759"/><use fill="#4c4c4c" height="100%" width="100%" x="846.87042" xlink:href="#a" y="764.03162"/><use fill="#4c4c4c" height="100%" width="100%" x="687.73871" xlink:href="#b" y="778.03558"/><use fill="#4c4c4c" height="100%" width="100%" x="793.28802" xlink:href="#b" y="778.03558"/><use fill="#4c4c4c" height="100%" width="100%" x="711.25311" xlink:href="#c" y="547.97192"/><use fill="#4c4c4c" height="100%" width="100%" x="878.71271" xlink:href="#c" y="547.97192"/><use fill="#4c4c4c" height="100%" width="100%" x="878.79175" xlink:href="#d" y="561.97192"/><use fill="#4c4c4c" height="100%" width="100%" x="878.67828" xlink:href="#e" y="575.97192"/><use fill="#4c4c4c" height="100%" width="100%" x="661.33978" xlink:href="#f" y="589.97192"/><use fill="#4c4c4c" height="100%" width="100%" x="712.99585" xlink:href="#f" y="589.97192"/><use fill="#4c4c4c" height="100%" width="100%" x="762.72443" xlink:href="#f" y="589.97192"/><use fill="#4c4c4c" height="100%" width="100%" x="809.49805" xlink:href="#f" y="589.97192"/><use fill="#4c4c4c" height="100%" width="100%" x="860.82874" xlink:href="#f" y="589.97192"/><use fill="#4c4c4c" height="100%" width="100%" x="878.74133" xlink:href="#f" y="589.97192"/><use fill="#4c4c4c" height="100%" width="100%" x="672.73254" xlink:href="#g" y="617.97192"/><use fill="#4c4c4c" height="100%" width="100%" x="689.47589" xlink:href="#g" y="617.97192"/><use fill="#4c4c4c" height="100%" width="100%" x="728.09894" xlink:href="#g" y="617.97192"/><use fill="#4c4c4c" height="100%" width="100%" x="739.70221" xlink:href="#g" y="617.97192"/><use fill="#4c4c4c" height="100%" width="100%" x="765.02002" xlink:href="#g" y="617.97192"/><use fill="#4c4c4c" height="100%" width="100%" x="781.44989" xlink:href="#g" y="617.97192"/><use fill="#4c4c4c" height="100%" width="100%" x="828.80426" xlink:href="#g" y="617.97192"/><use fill="#4c4c4c" height="100%" width="100%" x="860.76501" xlink:href="#g" y="617.97192"/><use fill="#4c4c4c" height="100%" width="100%" x="878.74841" xlink:href="#g" y="617.97192"/><use fill="#97172e" height="100%" width="100%" x="718.26837" xlink:href="#h" y="677.99011"/><use fill="#4c4c4c" height="100%" width="100%" x="127.0864" xlink:href="#a" y="446.46341"/><use fill="#4c4c4c" height="100%" width="100%" x="116.416" xlink:href="#b" y="501.0304"/><use fill="#4c4c4c" height="100%" width="100%" x="226.47791" xlink:href="#b" y="501.0304"/><use fill="#4c4c4c" height="100%" width="100%" x="66.034897" xlink:href="#b" y="529.03839"/><use fill="#4c4c4c" height="100%" width="100%" x="189.6283" xlink:href="#b" y="529.03839"/><use fill="#4c4c4c" height="100%" width="100%" x="115.8994" xlink:href="#a" y="649.81842"/><use fill="#4c4c4c" height="100%" width="100%" x="1026.0402" xlink:href="#b" y="651.02173"/><use fill="#4c4c4c" height="100%" width="100%" x="1133.8665" xlink:href="#b" y="651.02173"/><use fill="#4c4c4c" height="100%" width="100%" x="923.70837" xlink:href="#b" y="665.0257"/><use fill="#4c4c4c" height="100%" width="100%" x="961.92963" xlink:href="#b" y="665.0257"/><use fill="#4c4c4c" height="100%" width="100%" x="1065.021" xlink:href="#b" y="665.0257"/><use fill="#4c4c4c" height="100%" width="100%" x="1055.9355" xlink:href="#b" y="712.69873"/><use fill="#4c4c4c" height="100%" width="100%" x="978.93329" xlink:href="#b" y="746.36768"/><use fill="#4c4c4c" height="100%" width="100%" x="1011.5862" xlink:href="#b" y="760.3717"/></g><path d="m-43.520001 100.32092c0 5.07945-4.11758 9.19702-9.197026 9.19702-5.07945 0-9.19703-4.11757-9.19703-9.19702 0-5.079453 4.11758-9.19703 9.19703-9.19703 5.079446 0 9.197026 4.117577 9.197026 9.19703" fill="#e32823"/><path d="m-56.554865 103.09077s2.098753.14056 2.038118-.50574c-.05925-.6463-1.113455-2.28754-4.970583-3.520884 0 0 3.241146-.446486 5.597592 1.889294 0 0-1.926498-3.954974.489204-6.15019 2.415699-2.193837 5.410176-2.040873 5.410176-2.040873s-3.044085.544326-3.58979 2.432238c-.544325 1.88929.527791 4.390429 1.344966 6.108845.815798 1.71841.629765 3.43682-1.650887 3.31694-2.279276-.11852-4.045921-1.22095-4.668796-1.52963" fill="#f8eb00"/><path d="m-52.712892 105.98465.249424.76757h.80753l-.65319.47542.249425.76757-.653189-.47405-.653193.47405.249424-.76757-.653189-.47542h.80753zm0 0" fill="#f8eb00"/><path d="m-49.819014 105.55471.48507.6463.763432-.26183-.463021.66008.48507.64492-.771702-.23564-.464396.66007-.01242-.80752-.773081-.23703.763436-.26182zm0 0" fill="#f8eb00"/><path d="m-55.688079 105.51199-.48507.64492-.763432-.26183.463021.66008-.485069.6463.77308-.23702.463021.66008.01379-.80615.771701-.23703-.763432-.2632zm0 0" fill="#f8eb00"/><path d="m-47.485995 104.35857.684886.42995.618737-.51815-.195679.78273.683507.42995-.806154.0551-.197058.78272-.300415-.74965-.80615.0551.620116-.51814zm0 0" fill="#f8eb00"/><path d="m-57.945307 104.34203-.684882.42995-.618741-.51814.197062.78272-.684887.42995.806154.0551.197058.78273.300412-.74965.806153.0551-.620116-.51814zm0 0" fill="#f8eb00"/><path d="m-73.535051 109.50554h2.833247s-.186038.30041-.08819.64354c.09646.34452 1.464853 4.71565 1.464853 4.71565l1.5186-4.57233s.103353-.58704 0-.78686h1.491036s-.308681.5898-.380337.78686c-.544325 1.50757-2.084973 6.03167-2.084973 6.03167h-2.521811zm0 0" fill="#e32823"/><path d="m-66.31551 111.76552h2.098753s-.227376.32384-.227376.59807v3.57601c0 .16123.170875.44649.170875.44649h-1.973351s.132292-.29904.132292-.53744v-3.51399c0-.14746-.137802-.51677-.201193-.56914" fill="#e32823"/><path d="m-63.775785 111.76552s.250804.28801.250804.68764v3.46026c0 .15572-.16123.38999-.16123.47267h1.034905s-.136426-.34314-.136426-.46578v-3.15984l1.744595 3.62562h2.080839v-4.08451c0-.16812.252183-.35553.252183-.42719v-.10887h-1.117589s-.03172.17364.03168.20671c.06477.0317.103354.0896.103354.26458v3.0496l-1.641243-3.52089zm0 0" fill="#e32823"/><path d="m-58.191972 112.79078c0-.35278.172254-1.02526 1.010101-1.02526h3.053733c.147451 0 .369312.008.377582.39412.0083.38585 0 .56638 0 .56638s-.173634-.16537-.501608-.16537c-.327971 0-1.74873-.007-1.937519-.007-.188793 0-.327974.15572-.327974.44235v2.31511c0 .18052.06615.3197.288011.3197h.730359c.155717 0 .261829-.10611.261829-.36931v-.86128h-.614606c-.15572 0-.337619.0813-.337619.14745v-.91088h2.767101s-.197062.22187-.197062.52503v1.79834c0 .14745.197062.31971.197062.31971v.14745h-1.223698s-.303171.033-.303171-.33624c0 0-.0937.011-.103353.0675-.01101.0551-.04961.27009-.611847.27009h-1.745975c-.25218 0-.781346-.25907-.781346-.97151zm0 0" fill="#94192e"/><path d="m-42.351424 111.76552h2.0698s0 .17088-.110243.28112c-.110243.10887-.06752 3.13229-.06752 3.35139 0 .22049.159879.21084.286632.21084h1.630222c.176389 0 .21911-.0923.21911-.44648v-2.82911c0-.13505-.05098-.38034-.16951-.42168l-.0081-.14608h1.114849s.04134.13781-.06752.23014c-.110243.0937-.110243.24529-.110243.3886v2.95452c0 .30454-.19431 1.09002-1.02115 1.09002h-2.62653c-.438217 0-1.004591-.3886-1.004591-1.36839v-2.59209c0-.21084-.159851-.43408-.135047-.7028" fill="#94192e"/><path d="m-48.85852 114.44167h.217728c.09371 0 .428572-.0317.428572-.58704v-1.29398c0-.13918-.264584-.79513-1.079006-.79513h-3.734481v.1571s.175009.0427.175009.47267v3.56774c0 .1502-.09095.25631-.175009.34038v.12539h2.067055s-.01655-.15434-.06477-.18465c-.04685-.0303-.14883-.17915-.14883-.44235v-1.37253h.483693s.771702 1.81488.804775 1.99953h1.965081zm-1.01837-1.07073c0 .22186-.08682.27974-.202573.27974h-1.131368v-1.08314s.821309-.0138 1.048684-.0138c.22738 0 .285257.1502.285257.28525zm0 0" fill="#94192e"/><path d="m-43.965107 111.76552h-2.567284c-.766191 0-1.196139.70143-1.196139 1.08452v2.26412c0 1.0225.650434 1.31464 1.056957 1.31464h2.694062c.941201 0 1.056958-.87229 1.056958-1.25677v-2.26411c0-.78962-.650434-1.1424-1.044554-1.1424m-.614606 3.46577c0 .21635-.176389.39136-.392741.39136h-.665593c-.216351 0-.39274-.17501-.39274-.39136v-2.28065c0-.21635.176389-.39137.39274-.39137h.665593c.216352 0 .392741.17502.392741.39137zm0 0" fill="#94192e"/><path d="m-33.155759 111.76552h-3.622887s-.01658.14608.05927.18742c.07578.0427.118498.22875.118498.49885v3.52915c0 .12678-.180516.28663-.17914.44786h2.104284s-.05101-.22875-.16951-.30454c-.118498-.0758-.08407-1.36702-.08407-1.36702h2.271008c.253576 0 .717973-.27974.717973-.84473v-1.36013c0-.25218-.38862-.78686-1.215425-.78686m-.474063 1.94579c0 .1695-.137795.30731-.307305.30731h-.997691v-1.45108h.997691c.16951 0 .307305.13781.307305.30731zm0 0" fill="#94192e"/><use fill="#4c4c4c" height="100%" transform="matrix(.35277779 0 0 .35277779 -393.68503 -97.16161)" width="100%" x="856.31702" xlink:href="#a" y="191.3671"/><use fill="#4c4c4c" height="100%" transform="matrix(.35277779 0 0 .35277779 -393.68503 -97.16161)" width="100%" x="725.44983" xlink:href="#b" y="259.94681"/><use fill="#4c4c4c" height="100%" transform="matrix(.35277779 0 0 .35277779 -393.68503 -97.16161)" width="100%" x="741.08551" xlink:href="#b" y="259.94681"/><use fill="#4c4c4c" height="100%" transform="matrix(.35277779 0 0 .35277779 -393.68503 -97.16161)" width="100%" x="818.2713" xlink:href="#b" y="259.94681"/><use fill="#4c4c4c" height="100%" transform="matrix(.35277779 0 0 .35277779 -393.68503 -97.16161)" width="100%" x="819.08936" xlink:href="#i" y="287.94681"/><use fill="#4c4c4c" height="100%" transform="matrix(.35277779 0 0 .35277779 -393.68503 -97.16161)" width="100%" x="981.13623" xlink:href="#b" y="177.3598"/><use fill="#4c4c4c" height="100%" transform="matrix(.35277779 0 0 .35277779 -393.68503 -97.16161)" width="100%" x="1069.3137" xlink:href="#b" y="177.3598"/><use fill="#4c4c4c" height="100%" transform="matrix(.35277779 0 0 .35277779 -393.68503 -97.16161)" width="100%" x="960.03839" xlink:href="#b" y="191.3638"/><use fill="#4c4c4c" height="100%" transform="matrix(.35277779 0 0 .35277779 -393.68503 -97.16161)" width="100%" x="1099.8993" xlink:href="#b" y="191.3638"/><use fill="#4c4c4c" height="100%" transform="matrix(.35277779 0 0 .35277779 -393.68503 -97.16161)" width="100%" x="1055.037" xlink:href="#b" y="205.3678"/><use fill="#4c4c4c" height="100%" transform="matrix(.35277779 0 0 .35277779 -393.68503 -97.16161)" width="100%" x="1094.8782" xlink:href="#b" y="205.3678"/><use fill="#4c4c4c" height="100%" transform="matrix(.35277779 0 0 .35277779 -393.68503 -97.16161)" width="100%" x="979.25659" xlink:href="#b" y="296.0947"/><use fill="#4c4c4c" height="100%" transform="matrix(.35277779 0 0 .35277779 -393.68503 -97.16161)" width="100%" x="1012.3433" xlink:href="#b" y="296.0947"/><use fill="#4c4c4c" height="100%" transform="matrix(.35277779 0 0 .35277779 -393.68503 -97.16161)" width="100%" x="856.18378" xlink:href="#b" y="362.81729"/><use fill="#4c4c4c" height="100%" transform="matrix(.35277779 0 0 .35277779 -393.68503 -97.16161)" width="100%" x="712.27917" xlink:href="#a" y="404.82932"/><use fill="#4c4c4c" height="100%" transform="matrix(.35277779 0 0 .35277779 -393.68503 -97.16161)" width="100%" x="786.78479" xlink:href="#a" y="404.82932"/><use fill="#4c4c4c" height="100%" transform="matrix(.35277779 0 0 .35277779 -393.68503 -97.16161)" width="100%" x="1022.1794" xlink:href="#b" y="420.461"/><use fill="#4c4c4c" height="100%" transform="matrix(.35277779 0 0 .35277779 -393.68503 -97.16161)" width="100%" x="1135.4498" xlink:href="#a" y="434.465"/><use fill="#fff" height="100%" transform="matrix(.35277779 0 0 .35277779 -393.68503 -97.16161)" width="100%" x="427.2103" xlink:href="#j" y="800.03052"/></g></svg>